<svg width="62" height="20" viewBox="0 0 62 20" fill="none" xmlns="http://www.w3.org/2000/svg">
<path d="M11.792 16L11.776 8.576L8.096 14.72H7.168L3.488 8.672V16H1.504V4.8H3.216L7.664 12.224L12.032 4.8H13.744L13.76 16H11.792ZM22.0173 16.16C20.8759 16.16 19.8466 15.9147 18.9293 15.424C18.0119 14.9227 17.2919 14.2347 16.7693 13.36C16.2466 12.4747 15.9853 11.488 15.9853 10.4C15.9853 9.312 16.2466 8.33067 16.7693 7.456C17.2919 6.57067 18.0119 5.88267 18.9293 5.392C19.8466 4.89067 20.8759 4.64 22.0173 4.64C23.1586 4.64 24.1879 4.89067 25.1053 5.392C26.0226 5.88267 26.7426 6.56533 27.2653 7.44C27.7879 8.31467 28.0493 9.30133 28.0493 10.4C28.0493 11.4987 27.7879 12.4853 27.2653 13.36C26.7426 14.2347 26.0226 14.9227 25.1053 15.424C24.1879 15.9147 23.1586 16.16 22.0173 16.16ZM22.0173 14.336C22.7639 14.336 23.4359 14.1707 24.0333 13.84C24.6306 13.4987 25.0999 13.0293 25.4413 12.432C25.7826 11.824 25.9533 11.1467 25.9533 10.4C25.9533 9.65333 25.7826 8.98133 25.4413 8.384C25.0999 7.776 24.6306 7.30667 24.0333 6.976C23.4359 6.63467 22.7639 6.464 22.0173 6.464C21.2706 6.464 20.5986 6.63467 20.0013 6.976C19.4039 7.30667 18.9346 7.776 18.5933 8.384C18.2519 8.98133 18.0813 9.65333 18.0813 10.4C18.0813 11.1467 18.2519 11.824 18.5933 12.432C18.9346 13.0293 19.4039 13.4987 20.0013 13.84C20.5986 14.1707 21.2706 14.336 22.0173 14.336ZM40.1346 4.8L35.2546 16H33.2066L28.3106 4.8H30.5666L34.2946 13.44L38.0546 4.8H40.1346ZM49.7165 14.256V16H41.3165V4.8H49.4925V6.544H43.3965V9.456H48.8045V11.168H43.3965V14.256H49.7165ZM60.4353 14.256V16H52.0353V4.8H60.2113V6.544H54.1153V9.456H59.5233V11.168H54.1153V14.256H60.4353Z" fill="#333333"/>
</svg>
