<svg width="43" height="41" viewBox="0 0 43 41" fill="none" xmlns="http://www.w3.org/2000/svg">
<path fill-rule="evenodd" clip-rule="evenodd" d="M16.3851 19.1386H10.0078C8.85974 19.1386 7.92578 20.0727 7.92578 21.2206C7.92578 22.3687 8.85974 23.3027 10.0078 23.3027H14.3269C14.7733 21.7888 15.4761 20.3841 16.3851 19.1386ZM16.0057 23.3027C16.4803 21.9012 17.207 20.6149 18.1315 19.498C17.3448 20.6521 16.7308 21.9327 16.3269 23.3027H16.0057ZM13.9592 24.9042H10.0078C8.85974 24.9042 7.92578 25.8382 7.92578 26.9863C7.92578 28.1343 8.85974 29.0683 10.0078 29.0683H13.9098C13.8207 28.4402 13.7735 27.7988 13.7735 27.1465C13.7735 26.3828 13.8377 25.634 13.9592 24.9042ZM15.5287 29.0683C15.4276 28.4424 15.3751 27.8005 15.3751 27.1465C15.3751 26.3804 15.4471 25.6309 15.5849 24.9042H15.9592C15.8377 25.634 15.7735 26.3828 15.7735 27.1465C15.7735 27.7988 15.8207 28.4402 15.9098 29.0683H15.5287ZM14.2368 30.6699H10.0078C8.85974 30.6699 7.92578 31.6038 7.92578 32.7519C7.92578 33.9 8.85974 34.8339 10.0078 34.8339H16.1581C15.2972 33.5804 14.6408 32.1764 14.2368 30.6699ZM18.1309 34.7941C17.1366 33.5929 16.3712 32.1956 15.9022 30.6699H16.2368C16.6365 32.1605 17.2834 33.5507 18.1309 34.7941ZM28.3867 39.1169C24.6656 38.8088 21.4204 36.7972 19.4349 33.866C20.3806 34.985 21.553 35.8951 22.8815 36.5338C22.9934 36.5876 23.1116 36.613 23.2279 36.613C23.5261 36.613 23.8123 36.4457 23.9503 36.159C23.9671 36.1239 23.9812 36.0881 23.9926 36.0521C24.2801 36.2264 24.5767 36.3873 24.8815 36.5338C24.9934 36.5876 25.1116 36.613 25.2279 36.613C25.2687 36.613 25.3093 36.6099 25.3492 36.6037C25.3401 36.6517 25.3352 36.7012 25.335 36.7518C25.3329 37.1942 25.6899 37.5543 26.1321 37.5564L26.1857 37.5566C26.6279 37.5566 26.9865 37.198 26.9865 36.7558C26.9865 36.3136 26.6279 35.955 26.1857 35.955L26.1393 35.9548C26.097 35.9548 26.0554 35.9579 26.0149 35.9641C26.0825 35.6154 25.9106 35.2514 25.5754 35.0903C22.5396 33.6309 20.5781 30.5127 20.5781 27.1465C20.5781 25.7061 20.9332 24.2775 21.6048 23.0152C21.8125 22.6248 21.6644 22.1398 21.274 21.9321C20.8837 21.7244 20.3986 21.8725 20.1909 22.2629C19.3965 23.756 18.9766 25.4446 18.9766 27.1465C18.9766 29.1452 19.5447 31.087 20.6196 32.762L20.6556 32.8176C19.3426 31.2527 18.5781 29.248 18.5781 27.1465C18.5781 25.7061 18.9332 24.2775 19.6048 23.0152C19.8125 22.6248 19.6644 22.1398 19.274 21.9321C19.0507 21.8133 18.7963 21.8109 18.5806 21.9038C20.3925 18.1843 24.0694 15.5336 28.3867 15.1761C32.1085 15.4843 35.3544 17.4966 37.3398 20.4287C36.3938 19.3089 35.2208 18.3982 33.8917 17.7592C33.4929 17.5675 33.0145 17.7354 32.8229 18.134C32.806 18.1691 32.792 18.2048 32.7806 18.2409C32.493 18.0665 32.1965 17.9058 31.8917 17.7592C31.7407 17.6866 31.5783 17.6656 31.4244 17.6891C31.428 17.67 31.431 17.6508 31.4333 17.6312C31.4368 17.6016 31.4387 17.5715 31.4388 17.541C31.4408 17.0987 31.084 16.7385 30.6418 16.7364L30.5879 16.7363C30.1457 16.7363 29.7871 17.0948 29.7871 17.5371C29.7871 17.9794 30.1457 18.3379 30.5879 18.3379L30.6343 18.338H30.6381C30.6542 18.338 30.6702 18.3375 30.6861 18.3365C30.7104 18.3351 30.7344 18.3326 30.7582 18.329C30.6906 18.6777 30.8625 19.0415 31.1977 19.2026C34.2335 20.662 36.195 23.7802 36.195 27.1465C36.195 28.5869 35.84 30.0154 35.1683 31.2778C34.9606 31.6682 35.1087 32.1531 35.4991 32.3608C35.619 32.4246 35.7477 32.4548 35.8746 32.4548C36.1611 32.4548 36.4382 32.3006 36.5822 32.03C37.3766 30.537 37.7966 28.8483 37.7966 27.1465C37.7966 25.1477 37.2285 23.2059 36.1536 21.531L36.1176 21.4753C37.4306 23.0402 38.195 25.045 38.195 27.1465C38.195 28.5869 37.84 30.0154 37.1683 31.2778C36.9606 31.6682 37.1087 32.1531 37.4991 32.3608C37.619 32.4246 37.7477 32.4548 37.8746 32.4548C37.9844 32.4548 38.0929 32.4322 38.193 32.389C36.3812 36.1086 32.7042 38.7595 28.3867 39.1169ZM38.6483 34.7873C40.132 32.6074 41 29.9764 41 27.1465C41 24.3155 40.1313 21.6838 38.6465 19.5036C40.3649 21.5817 41.3984 24.2457 41.3984 27.1465C41.3984 30.0463 40.3655 32.7095 38.6483 34.7873ZM17.445 36.4355H10.0078H8.00781C5.97668 36.4355 4.32422 34.783 4.32422 32.7519C4.32422 31.5854 4.86987 30.5444 5.71875 29.8691C4.86987 29.1937 4.32422 28.1528 4.32422 26.9863C4.32422 25.8198 4.86987 24.7789 5.71875 24.1035C4.86987 23.4281 4.32422 22.3871 4.32422 21.2206C4.32422 20.0542 4.86987 19.0132 5.71875 18.3378C4.86987 17.6625 4.32422 16.6215 4.32422 15.4551C4.32422 13.424 5.97668 11.7715 8.00781 11.7715H10.0078H10.0963C9.68848 11.1787 9.44922 10.4616 9.44922 9.68945C9.44922 8.91724 9.68854 8.20013 10.0963 7.60742H5.68359H3.68359C1.65247 7.60742 0 5.9549 0 3.92383C0 1.8927 1.65247 0.240234 3.68359 0.240234H5.68359H23.3027H25.3027C27.3338 0.240234 28.9863 1.8927 28.9863 3.92383C28.9863 4.69598 28.7469 5.41309 28.3392 6.00586H32.7519H34.7519C36.783 6.00586 38.4355 7.65833 38.4355 9.68945C38.4355 11.7205 36.783 13.373 34.7519 13.373H32.7519H32.6671C32.8061 13.576 32.9255 13.7949 33.0229 14.0271C38.7695 15.6218 43 20.899 43 27.1465C43 34.6528 36.8931 40.7598 29.3867 40.7598C29.0505 40.7598 28.717 40.7475 28.3868 40.7234C28.0566 40.7475 27.723 40.7598 27.3867 40.7598C23.4678 40.7598 19.9311 39.0946 17.445 36.4355ZM36.0607 11.3076C36.5321 10.9255 36.8339 10.3421 36.8339 9.68945C36.8339 9.03687 36.5321 8.45337 36.0607 8.07135C36.3007 8.56006 36.4355 9.10931 36.4355 9.68945C36.4355 10.2696 36.3007 10.8188 36.0607 11.3076ZM32.7519 7.60742H15.1328C13.9847 7.60742 13.0508 8.54144 13.0508 9.68945C13.0508 10.8375 13.9847 11.7715 15.1328 11.7715H27.6269H29.6269H32.7519C33.9 11.7715 34.8339 10.8375 34.8339 9.68945C34.8339 8.54144 33.9 7.60742 32.7519 7.60742ZM11.8249 11.3083C11.5845 10.8195 11.4492 10.27 11.4492 9.68945C11.4492 9.10889 11.5845 8.55939 11.825 8.07056C11.353 8.45258 11.0508 9.03638 11.0508 9.68945C11.0508 10.3425 11.353 10.9263 11.8249 11.3083ZM26.6105 5.54266C27.0825 5.16064 27.3847 4.5769 27.3847 3.92383C27.3847 3.27124 27.0829 2.68774 26.6115 2.30573C26.8514 2.79443 26.9863 3.34369 26.9863 3.92383C26.9863 4.50439 26.851 5.05377 26.6105 5.54266ZM23.3027 1.8418H5.68359C4.53552 1.8418 3.60156 2.77582 3.60156 3.92383C3.60156 5.07184 4.53552 6.00586 5.68359 6.00586H23.3027C24.4507 6.00586 25.3847 5.07184 25.3847 3.92383C25.3847 2.77582 24.4507 1.8418 23.3027 1.8418ZM2.37476 5.54193C2.13477 5.05322 2 4.50397 2 3.92383C2 3.34369 2.13483 2.79443 2.37476 2.30573C1.90338 2.68774 1.60156 3.27124 1.60156 3.92383C1.60156 4.57642 1.90338 5.15991 2.37476 5.54193ZM6.69904 34.3701C6.45905 33.8813 6.32422 33.332 6.32422 32.7519C6.32422 32.1713 6.45935 31.6219 6.69977 31.1331C6.22791 31.5151 5.92578 32.0989 5.92578 32.7519C5.92578 33.4045 6.2276 33.988 6.69904 34.3701ZM6.69977 28.605C6.45935 28.1163 6.32422 27.5668 6.32422 26.9863C6.32422 26.4057 6.45941 25.8563 6.69983 25.3675C6.22797 25.7495 5.92578 26.3333 5.92578 26.9863C5.92578 27.6393 6.22791 28.223 6.69977 28.605ZM6.69977 22.8394C6.45935 22.3506 6.32422 21.8012 6.32422 21.2206C6.32422 20.6401 6.45935 20.0907 6.69977 19.6019C6.22791 19.9839 5.92578 20.5677 5.92578 21.2206C5.92578 21.8737 6.22791 22.4574 6.69977 22.8394ZM10.0078 17.537H17.7534C20.2194 15.0651 23.6275 13.5333 27.3867 13.5333C27.7211 13.5333 28.0524 13.5461 28.3806 13.5701C28.418 13.5673 28.4555 13.5647 28.493 13.5623C28.227 13.4406 27.9331 13.373 27.6269 13.373H10.0078C8.8598 13.373 7.92578 14.3071 7.92578 15.4551C7.92578 16.603 8.8598 17.537 10.0078 17.537ZM6.69977 17.0737C6.22797 16.6917 5.92578 16.108 5.92578 15.4551C5.92578 14.8025 6.2276 14.2191 6.69897 13.837C6.45905 14.3257 6.32422 14.8749 6.32422 15.4551C6.32422 16.0356 6.45935 16.585 6.69977 17.0737ZM27.6211 24.7695C27.6211 25.6103 28.4114 26.2943 29.3828 26.2943C31.2373 26.2943 32.7461 27.6968 32.7461 29.4207C32.7461 30.8881 31.6527 32.1219 30.1836 32.4568V32.8028C30.1836 33.245 29.825 33.6036 29.3828 33.6036C28.9406 33.6036 28.582 33.245 28.582 32.8028V32.4568L28.5459 32.4484C28.5311 32.4449 28.5164 32.4412 28.5016 32.4375C28.4617 32.4274 28.4221 32.4167 28.3828 32.4053C28.3173 32.4243 28.2508 32.4415 28.1836 32.4568V32.8028C28.1836 33.245 27.825 33.6036 27.3828 33.6036C26.9406 33.6036 26.582 33.245 26.582 32.8028V32.4568C25.1129 32.1219 24.0195 30.8881 24.0195 29.4207C24.0195 28.9785 24.3781 28.6199 24.8203 28.6199C25.2625 28.6199 25.6211 28.9785 25.6211 29.4207C25.6211 29.8959 25.8735 30.321 26.2684 30.6009C26.108 30.2366 26.0195 29.8381 26.0195 29.4207C26.0195 28.9785 26.3781 28.6199 26.8203 28.6199C27.2625 28.6199 27.6211 28.9785 27.6211 29.4207C27.6211 29.9404 27.9229 30.4001 28.3828 30.6755C28.8427 30.4001 29.1445 29.9404 29.1445 29.4207C29.1445 28.5799 28.3542 27.8959 27.3828 27.8959C25.5283 27.8959 24.0195 26.4933 24.0195 24.7695C24.0195 23.3021 25.1129 22.0682 26.582 21.7334V21.3169C26.582 20.8747 26.9406 20.5161 27.3828 20.5161C27.825 20.5161 28.1836 20.8747 28.1836 21.3169V21.7334C28.2184 21.7413 28.2531 21.7498 28.2875 21.7587C28.3195 21.767 28.3513 21.7758 28.3828 21.7849C28.4484 21.7659 28.5148 21.7487 28.582 21.7334V21.3169C28.582 20.8747 28.9406 20.5161 29.3828 20.5161C29.825 20.5161 30.1836 20.8747 30.1836 21.3169V21.7334C31.6527 22.0682 32.7461 23.3021 32.7461 24.7695C32.7461 25.2117 32.3875 25.5703 31.9453 25.5703C31.5031 25.5703 31.1445 25.2117 31.1445 24.7695C31.1445 24.2943 30.8921 23.8692 30.4972 23.5894C30.6576 23.9536 30.7461 24.3522 30.7461 24.7695C30.7461 25.2117 30.3875 25.5703 29.9453 25.5703C29.5031 25.5703 29.1445 25.2117 29.1445 24.7695C29.1445 24.2499 28.8427 23.7902 28.3828 23.5148C27.9229 23.7902 27.6211 24.2499 27.6211 24.7695ZM31.1445 29.4207C31.1445 29.8959 30.8921 30.321 30.4972 30.6009C30.6576 30.2366 30.7461 29.8381 30.7461 29.4207C30.7461 29.0034 30.6577 28.605 30.4974 28.2407C30.8922 28.5205 31.1445 28.9456 31.1445 29.4207ZM26.0195 24.7695C26.0195 25.1868 26.1079 25.5853 26.2682 25.9495C25.8735 25.6697 25.6211 25.2446 25.6211 24.7695C25.6211 24.2943 25.8735 23.8692 26.2684 23.5894C26.108 23.9536 26.0195 24.3522 26.0195 24.7695ZM28.1857 35.955L28.1393 35.9548C27.6951 35.954 27.337 36.3095 27.335 36.7518C27.3329 37.1942 27.6899 37.5543 28.1321 37.5564L28.1857 37.5566C28.6279 37.5566 28.9865 37.198 28.9865 36.7558C28.9865 36.3136 28.6279 35.955 28.1857 35.955ZM28.6418 16.7364L28.5879 16.7363C28.1457 16.7363 27.7871 17.0948 27.7871 17.5371C27.7871 17.9794 28.1457 18.3379 28.5879 18.3379L28.6343 18.338H28.6381C29.0786 18.338 29.4367 17.9819 29.4388 17.541C29.4408 17.0987 29.084 16.7385 28.6418 16.7364Z" fill="#333333"/>
</svg>
